<svg width="150" height="150" viewBox="0 0 150 150" fill="none" xmlns="http://www.w3.org/2000/svg">
<rect width="150" height="150" fill="#1E1E1E"/>
<g clip-path="url(#clip0_0_1)">
<rect width="1440" height="6650" transform="translate(-645 -4919)" fill="white"/>
<circle cx="75" cy="75" r="75" transform="matrix(-1 0 0 1 150 0)" fill="#030000"/>
<g clip-path="url(#clip1_0_1)">
<path d="M43.6181 87.1757C43.6181 95.431 50.3099 102.123 58.5651 102.123C66.8203 102.123 73.5122 95.431 73.5122 87.1757C73.5122 78.9205 66.8203 72.2288 58.5651 72.2288C56.8685 72.2288 55.2445 72.5245 53.7242 73.0457C57.0879 53.7539 72.1317 41.3129 58.1861 51.5521C42.7225 62.9063 43.6015 86.7189 43.6188 87.1553C43.6188 87.1621 43.6181 87.1682 43.6181 87.1757Z" fill="#F9A61F" fill-opacity="0.92"/>
<path d="M76.5017 87.1757C76.5017 95.431 83.1935 102.123 91.4487 102.123C99.704 102.123 106.396 95.431 106.396 87.1757C106.396 78.9205 99.7039 72.2288 91.4486 72.2288C89.7519 72.2288 88.128 72.5245 86.6077 73.0457C89.9714 53.7539 105.015 41.3129 91.0697 51.5521C75.6061 62.9063 76.485 86.7189 76.5024 87.1553C76.5024 87.1621 76.5017 87.1682 76.5017 87.1757Z" fill="#F9A61F" fill-opacity="0.92"/>
</g>
</g>
<defs>
<clipPath id="clip0_0_1">
<rect width="1440" height="6650" fill="white" transform="translate(-645 -4919)"/>
</clipPath>
<clipPath id="clip1_0_1">
<rect width="62.7907" height="62.7907" fill="white" transform="translate(43.6045 43.6045)"/>
</clipPath>
</defs>
</svg>
